<?xml version="1.0" encoding="utf-8"?>
<!-- Generated by Mocodo 4.2.4 -->
<svg width="326" height="388" viewBox="0 0 326 388" xmlns="http://www.w3.org/2000/svg">
<rect x="0" y="0" width="326" height="388" fill="#f7f7f7" stroke="none" stroke-width="0"/>

<!-- Association IS_TAGGED_AS -->
<g>
	<line x1="176" y1="85" x2="57" y2="211" stroke="#4393c3" stroke-width="2"/>
	<line x1="57" y1="320" x2="57" y2="211" stroke="#4393c3" stroke-width="2"/>
	<g>
		<path d="M87 186 a14 14 90 0 1 14 14 V211 h-88 V200 a14 14 90 0 1 14 -14" fill="#92c5de" stroke="#92c5de" stroke-width="0"/>
		<path d="M101 211 v11 a14 14 90 0 1 -14 14 H27 a14 14 90 0 1 -14 -14 V211 H88" fill="#d1e5f0" stroke="#d1e5f0" stroke-width="0"/>
		<rect x="13" y="186" width="88" height="50" fill="none" rx="14" stroke="#4393c3" stroke-width="2"/>
		<line x1="13" y1="211" x2="101" y2="211" stroke="#4393c3" stroke-width="1"/>
		<text x="20" y="203.75" fill="#000000" font-family="Verdana" font-size="12">is tagged as</text>
	</g>
	<text x="105" y="131.43" fill="#b2182b" font-family="Verdana" font-size="12">0,1</text>
	<text x="62" y="253" fill="#b2182b" font-family="Verdana" font-size="12">0,N</text>
</g>

<!-- Association MADE -->
<g>
	<line x1="176" y1="85" x2="176" y2="211" stroke="#4393c3" stroke-width="2"/>
	<line x1="176" y1="320" x2="176" y2="211" stroke="#4393c3" stroke-width="2"/>
	<g>
		<path d="M187 186 a14 14 90 0 1 14 14 V211 h-50 V200 a14 14 90 0 1 14 -14" fill="#92c5de" stroke="#92c5de" stroke-width="0"/>
		<path d="M201 211 v11 a14 14 90 0 1 -14 14 H165 a14 14 90 0 1 -14 -14 V211 H50" fill="#d1e5f0" stroke="#d1e5f0" stroke-width="0"/>
		<rect x="151" y="186" width="50" height="50" fill="none" rx="14" stroke="#4393c3" stroke-width="2"/>
		<line x1="151" y1="211" x2="201" y2="211" stroke="#4393c3" stroke-width="1"/>
		<text x="159" y="203.75" fill="#000000" font-family="Verdana" font-size="12">made</text>
	</g>
	<text x="181" y="178" fill="#b2182b" font-family="Verdana" font-size="12">1,1</text>
	<text x="181" y="278" fill="#b2182b" font-family="Verdana" font-size="12">0,N</text>
</g>

<!-- Association IS_A -->
<g>
	<line x1="176" y1="85" x2="282" y2="211" stroke="#4393c3" stroke-width="2"/>
	<line x1="282" y1="320" x2="282" y2="211" stroke="#4393c3" stroke-width="2"/>
	<g>
		<path d="M288 186 a14 14 90 0 1 14 14 V211 h-40 V200 a14 14 90 0 1 14 -14" fill="#92c5de" stroke="#92c5de" stroke-width="0"/>
		<path d="M302 211 v11 a14 14 90 0 1 -14 14 H276 a14 14 90 0 1 -14 -14 V211 H40" fill="#d1e5f0" stroke="#d1e5f0" stroke-width="0"/>
		<rect x="262" y="186" width="40" height="50" fill="none" rx="14" stroke="#4393c3" stroke-width="2"/>
		<line x1="262" y1="211" x2="302" y2="211" stroke="#4393c3" stroke-width="1"/>
		<text x="270" y="203.75" fill="#000000" font-family="Verdana" font-size="12">is_a</text>
	</g>
	<text x="226" y="136.7" fill="#b2182b" font-family="Verdana" font-size="12">1,1</text>
	<text x="287" y="278" fill="#b2182b" font-family="Verdana" font-size="12">0,N</text>
</g>

<!-- Entity PRODUCT -->
<g>
	<g>
		<rect x="131" y="9" width="90" height="25" fill="#f4a582" stroke="none" stroke-width="0" opacity="1"/>
		<rect x="131" y="34" width="90" height="127" fill="#fddbc7" stroke="none" stroke-width="0" opacity="1"/>
		<rect x="131" y="9" width="90" height="152" fill="none" stroke="#d6604d" stroke-width="2" opacity="1"/>
		<line x1="131" y1="34" x2="221" y2="34" stroke="#d6604d" stroke-width="1"/>
	</g>
	<text x="146" y="26.75" fill="#000000" font-family="Verdana" font-size="12">PRODUCT</text>
	<text x="136" y="51.8" fill="#000000" font-family="Verdana" font-size="12">product code</text>
	<line x1="136" y1="54" x2="215" y2="54" stroke="#000000" stroke-width="1"/>
	<text x="136" y="68.8" fill="#000000" font-family="Verdana" font-size="12">name</text>
	<text x="136" y="85.8" fill="#000000" font-family="Verdana" font-size="12">description</text>
	<text x="136" y="102.8" fill="#000000" font-family="Verdana" font-size="12">picture</text>
	<text x="136" y="119.8" fill="#000000" font-family="Verdana" font-size="12">price</text>
	<text x="136" y="136.8" fill="#000000" font-family="Verdana" font-size="12">rate</text>
	<text x="136" y="153.8" fill="#000000" font-family="Verdana" font-size="12">status</text>
</g>

<!-- Entity CATEGORY -->
<g>
	<g>
		<rect x="9" y="261" width="96" height="25" fill="#f4a582" stroke="none" stroke-width="0" opacity="1"/>
		<rect x="9" y="286" width="96" height="93" fill="#fddbc7" stroke="none" stroke-width="0" opacity="1"/>
		<rect x="9" y="261" width="96" height="118" fill="none" stroke="#d6604d" stroke-width="2" opacity="1"/>
		<line x1="9" y1="286" x2="105" y2="286" stroke="#d6604d" stroke-width="1"/>
	</g>
	<text x="24" y="278.75" fill="#000000" font-family="Verdana" font-size="12">CATEGORY</text>
	<text x="14" y="303.8" fill="#000000" font-family="Verdana" font-size="12">category code</text>
	<line x1="14" y1="306" x2="100" y2="306" stroke="#000000" stroke-width="1"/>
	<text x="14" y="320.8" fill="#000000" font-family="Verdana" font-size="12">name</text>
	<text x="14" y="337.8" fill="#000000" font-family="Verdana" font-size="12">subtitle</text>
	<text x="14" y="354.8" fill="#000000" font-family="Verdana" font-size="12">picture</text>
	<text x="14" y="371.8" fill="#000000" font-family="Verdana" font-size="12">home_order</text>
</g>

<!-- Entity BRAND -->
<g>
	<g>
		<rect x="137" y="286" width="78" height="25" fill="#f4a582" stroke="none" stroke-width="0" opacity="1"/>
		<rect x="137" y="311" width="78" height="43" fill="#fddbc7" stroke="none" stroke-width="0" opacity="1"/>
		<rect x="137" y="286" width="78" height="68" fill="none" stroke="#d6604d" stroke-width="2" opacity="1"/>
		<line x1="137" y1="311" x2="215" y2="311" stroke="#d6604d" stroke-width="1"/>
	</g>
	<text x="154" y="303.75" fill="#000000" font-family="Verdana" font-size="12">BRAND</text>
	<text x="142" y="328.8" fill="#000000" font-family="Verdana" font-size="12">brand code</text>
	<line x1="142" y1="331" x2="210" y2="331" stroke="#000000" stroke-width="1"/>
	<text x="142" y="345.8" fill="#000000" font-family="Verdana" font-size="12">name</text>
</g>

<!-- Entity TYPE -->
<g>
	<g>
		<rect x="247" y="286" width="70" height="25" fill="#f4a582" stroke="none" stroke-width="0" opacity="1"/>
		<rect x="247" y="311" width="70" height="43" fill="#fddbc7" stroke="none" stroke-width="0" opacity="1"/>
		<rect x="247" y="286" width="70" height="68" fill="none" stroke="#d6604d" stroke-width="2" opacity="1"/>
		<line x1="247" y1="311" x2="317" y2="311" stroke="#d6604d" stroke-width="1"/>
	</g>
	<text x="267" y="303.75" fill="#000000" font-family="Verdana" font-size="12">TYPE</text>
	<text x="252" y="328.8" fill="#000000" font-family="Verdana" font-size="12">type code</text>
	<line x1="252" y1="331" x2="312" y2="331" stroke="#000000" stroke-width="1"/>
	<text x="252" y="345.8" fill="#000000" font-family="Verdana" font-size="12">name</text>
</g>
</svg>